<mxfile host="app.diagrams.net" modified="2021-03-18T14:41:21.513Z" agent="5.0 (Macintosh; Intel Mac OS X 10_14_3) AppleWebKit/537.36 (KHTML, like Gecko) Chrome/89.0.4389.82 Safari/537.36" etag="pscKoY7fLNHulr_TAcOl" version="14.4.8" type="github">
  <diagram id="9fnjXT7nlAm7Ix4f8WDv" name="Page-1">
    <mxGraphModel dx="1351" dy="57" grid="1" gridSize="10" guides="1" tooltips="1" connect="1" arrows="1" fold="1" page="1" pageScale="1" pageWidth="500" pageHeight="650" math="0" shadow="0">
      <root>
        <mxCell id="0" />
        <mxCell id="1" parent="0" />
        <mxCell id="cwQZGGsmYyi4_czCK5QZ-2" value="&lt;font style=&quot;font-size: 23px&quot;&gt;IP Header（20Byte）&lt;/font&gt;" style="rounded=1;whiteSpace=wrap;html=1;fontSize=23;fillColor=#6DB5A8;" parent="1" vertex="1">
          <mxGeometry x="115" y="780" width="190" height="60" as="geometry" />
        </mxCell>
        <mxCell id="cwQZGGsmYyi4_czCK5QZ-3" value="&lt;font style=&quot;font-size: 23px&quot;&gt;UDP 数据（1473Byte）&lt;/font&gt;" style="rounded=1;whiteSpace=wrap;html=1;fontSize=23;fillColor=#FDD276;" parent="1" vertex="1">
          <mxGeometry x="495" y="780" width="390" height="60" as="geometry" />
        </mxCell>
        <mxCell id="cwQZGGsmYyi4_czCK5QZ-4" value="&lt;font style=&quot;font-size: 23px&quot;&gt;UDP Header（8byte）&lt;/font&gt;" style="rounded=1;whiteSpace=wrap;html=1;fontSize=23;fillColor=#F19C99;" parent="1" vertex="1">
          <mxGeometry x="305" y="780" width="190" height="60" as="geometry" />
        </mxCell>
        <mxCell id="cwQZGGsmYyi4_czCK5QZ-6" value="" style="endArrow=none;dashed=1;html=1;strokeWidth=10;strokeColor=#5A6EAB;" parent="1" edge="1">
          <mxGeometry width="50" height="50" relative="1" as="geometry">
            <mxPoint x="304" y="980" as="sourcePoint" />
            <mxPoint x="305" y="780" as="targetPoint" />
          </mxGeometry>
        </mxCell>
        <mxCell id="cwQZGGsmYyi4_czCK5QZ-7" value="" style="endArrow=none;dashed=1;html=1;strokeWidth=10;strokeColor=#5A6EAB;" parent="1" edge="1">
          <mxGeometry width="50" height="50" relative="1" as="geometry">
            <mxPoint x="884" y="1140" as="sourcePoint" />
            <mxPoint x="885" y="770" as="targetPoint" />
          </mxGeometry>
        </mxCell>
        <mxCell id="cwQZGGsmYyi4_czCK5QZ-8" value="" style="shape=curlyBracket;whiteSpace=wrap;html=1;rounded=1;direction=north;strokeWidth=5;" parent="1" vertex="1">
          <mxGeometry x="305" y="850" width="570" height="40" as="geometry" />
        </mxCell>
        <mxCell id="cwQZGGsmYyi4_czCK5QZ-9" value="&lt;font style=&quot;font-size: 30px&quot;&gt;IP Data的长度&lt;/font&gt;" style="text;html=1;strokeColor=none;fillColor=none;align=center;verticalAlign=middle;whiteSpace=wrap;rounded=0;" parent="1" vertex="1">
          <mxGeometry x="505" y="900" width="240" height="20" as="geometry" />
        </mxCell>
        <mxCell id="cwQZGGsmYyi4_czCK5QZ-10" value="" style="shape=curlyBracket;whiteSpace=wrap;html=1;rounded=1;direction=south;strokeWidth=5;" parent="1" vertex="1">
          <mxGeometry x="115" y="720" width="770" height="40" as="geometry" />
        </mxCell>
        <mxCell id="cwQZGGsmYyi4_czCK5QZ-11" value="&lt;font style=&quot;font-size: 30px&quot;&gt;IP总长度 （1501） &amp;gt; MTU (1500)&lt;/font&gt;" style="text;html=1;strokeColor=none;fillColor=none;align=center;verticalAlign=middle;whiteSpace=wrap;rounded=0;" parent="1" vertex="1">
          <mxGeometry x="185" y="680" width="570" height="20" as="geometry" />
        </mxCell>
        <mxCell id="RsM1p1C6XDxdwzADdE5d-2" value="&lt;font style=&quot;font-size: 23px&quot;&gt;IP Header（20Byte）&lt;/font&gt;" style="rounded=1;whiteSpace=wrap;html=1;fontSize=23;fillColor=#6DB5A8;" vertex="1" parent="1">
          <mxGeometry x="110" y="980" width="190" height="60" as="geometry" />
        </mxCell>
        <mxCell id="RsM1p1C6XDxdwzADdE5d-3" value="&lt;font style=&quot;font-size: 23px&quot;&gt;UDP 数据（1472Byte）&lt;/font&gt;" style="rounded=1;whiteSpace=wrap;html=1;fontSize=23;fillColor=#FDD276;" vertex="1" parent="1">
          <mxGeometry x="490" y="980" width="340" height="60" as="geometry" />
        </mxCell>
        <mxCell id="RsM1p1C6XDxdwzADdE5d-4" value="&lt;font style=&quot;font-size: 23px&quot;&gt;UDP Header（8byte）&lt;/font&gt;" style="rounded=1;whiteSpace=wrap;html=1;fontSize=23;fillColor=#F19C99;" vertex="1" parent="1">
          <mxGeometry x="300" y="980" width="190" height="60" as="geometry" />
        </mxCell>
        <mxCell id="RsM1p1C6XDxdwzADdE5d-6" value="&lt;font style=&quot;font-size: 23px&quot;&gt;IP Header（20Byte）&lt;/font&gt;" style="rounded=1;whiteSpace=wrap;html=1;fontSize=23;fillColor=#6DB5A8;" vertex="1" parent="1">
          <mxGeometry x="638" y="1141" width="190" height="60" as="geometry" />
        </mxCell>
        <mxCell id="RsM1p1C6XDxdwzADdE5d-9" value="c&lt;span style=&quot;color: rgb(199 , 197 , 197) ; font-family: &amp;#34;open sans&amp;#34; , &amp;#34;clear sans&amp;#34; , &amp;#34;helvetica neue&amp;#34; , &amp;#34;helvetica&amp;#34; , &amp;#34;arial&amp;#34; , sans-serif ; font-size: 16px ; text-align: left ; background-color: rgb(255 , 255 , 255)&quot;&gt;**&lt;/span&gt;" style="shape=curlyBracket;whiteSpace=wrap;html=1;rounded=1;direction=north;strokeWidth=5;" vertex="1" parent="1">
          <mxGeometry x="120" y="1050" width="710" height="40" as="geometry" />
        </mxCell>
        <mxCell id="RsM1p1C6XDxdwzADdE5d-12" value="&lt;font style=&quot;font-size: 18px&quot;&gt;IP数据(1byte)&lt;/font&gt;" style="rounded=1;whiteSpace=wrap;html=1;fontSize=23;fillColor=#FDD276;" vertex="1" parent="1">
          <mxGeometry x="828" y="1141" width="60" height="60" as="geometry" />
        </mxCell>
        <mxCell id="RsM1p1C6XDxdwzADdE5d-13" value="" style="endArrow=none;dashed=1;html=1;strokeWidth=10;strokeColor=#5A6EAB;" edge="1" parent="1">
          <mxGeometry width="50" height="50" relative="1" as="geometry">
            <mxPoint x="828" y="1140" as="sourcePoint" />
            <mxPoint x="829" y="772" as="targetPoint" />
          </mxGeometry>
        </mxCell>
        <mxCell id="RsM1p1C6XDxdwzADdE5d-14" value="" style="shape=curlyBracket;whiteSpace=wrap;html=1;rounded=1;direction=north;strokeWidth=5;" vertex="1" parent="1">
          <mxGeometry x="645" y="1220" width="240" height="40" as="geometry" />
        </mxCell>
        <mxCell id="RsM1p1C6XDxdwzADdE5d-15" value="&lt;font style=&quot;font-size: 30px&quot;&gt;分包1&lt;/font&gt;" style="text;html=1;strokeColor=none;fillColor=none;align=center;verticalAlign=middle;whiteSpace=wrap;rounded=0;" vertex="1" parent="1">
          <mxGeometry x="430" y="1110" width="90" height="20" as="geometry" />
        </mxCell>
        <mxCell id="RsM1p1C6XDxdwzADdE5d-16" value="&lt;font style=&quot;font-size: 30px&quot;&gt;分包2&lt;/font&gt;" style="text;html=1;strokeColor=none;fillColor=none;align=center;verticalAlign=middle;whiteSpace=wrap;rounded=0;" vertex="1" parent="1">
          <mxGeometry x="720" y="1270" width="90" height="20" as="geometry" />
        </mxCell>
      </root>
    </mxGraphModel>
  </diagram>
</mxfile>
